# xmcd
#
# Track frame offsets: 
#        150
#        16930
#        34852
#        60580
#        76705
#        93952
#        110005
#        136177
#        156802
#        173827
#        189427
#        208702
#        228052
#        247405
#        265180
#        283555
#        300830
#        315130
#        329250
#
# Disc length: 4637 seconds
#
# Revision: 20
# Processed by: cddbd v1.5.2PL0 Copyright (c) Steve Scherf et al.
# Submitted via: ExactAudioCopyFreeDBPlugin 1.0
#
DISCID=ec121b13
DTITLE=Various Artist - Knuffelrock 4 [CD2)
DYEAR=1992
DGENRE=Slow
TTITLE0=A-Ha - Hunting High And Low
TTITLE1=Ten Sharp - You (Acoustic Version)
TTITLE2=George Michael and Elton John - Don't Let The Sun Go Down On Me
TTITLE3=Beverly Craven - Promise Me
TTITLE4=Clouseau - Close Encounters
TTITLE5=Rod Stewart - Tonight's The Night (Gonna Be Alright)
TTITLE6=Eric Clapton - Lead Me On
TTITLE7=Eurythmics - Miracle Of Love
TTITLE8=Chicago - You're The Inspiration
TTITLE9=Phil Collins - Groovy Kind Of Love
TTITLE10=White Lion - When The Children Cry
TTITLE11=Poison - Every Rose Has Its Thorn
TTITLE12=Bad English - When I See You Smile
TTITLE13=Michael Bolton - Missing You Now
TTITLE14=Belinda Carlisle - Half The World
TTITLE15=Wilson Phillips - You Won't See Me Cry
TTITLE16=Charade - Wish I Could Be There
TTITLE17=Art Garfunkel - All I Know
TTITLE18=Stevie B. - Prayer
EXTD=YEAR: 1992
EXTT0=
EXTT1=
EXTT2=
EXTT3=
EXTT4=
EXTT5=
EXTT6=
EXTT7=
EXTT8=
EXTT9=
EXTT10=
EXTT11=
EXTT12=
EXTT13=
EXTT14=
EXTT15=
EXTT16=
EXTT17=
EXTT18=
PLAYORDER=
